<svg xmlns="http://www.w3.org/2000/svg" width="16" height="16" viewBox="0 0 16 16" shape-rendering="crispEdges">
  <title>one qi returning origin sword</title>
  <desc>Vanilla-style sword silhouette recolored for one_qi_returning_origin_sword.</desc>
    <rect x="2" y="0" width="1" height="1" fill="#0B3A2E"/>
    <rect x="1" y="0" width="1" height="1" fill="#0B3A2E"/>
    <rect x="0" y="0" width="1" height="1" fill="#0B3A2E"/>
    <rect x="3" y="1" width="1" height="1" fill="#0B3A2E"/>
    <rect x="2" y="1" width="1" height="1" fill="#4EC9F0"/>
    <rect x="1" y="1" width="1" height="1" fill="#4EC9F0"/>
    <rect x="0" y="1" width="1" height="1" fill="#0E5A4A"/>
    <rect x="4" y="2" width="1" height="1" fill="#0B3A2E"/>
    <rect x="3" y="2" width="1" height="1" fill="#4EC9F0"/>
    <rect x="2" y="2" width="1" height="1" fill="#159FE8"/>
    <rect x="1" y="2" width="1" height="1" fill="#4EC9F0"/>
    <rect x="0" y="2" width="1" height="1" fill="#0E5A4A"/>
    <rect x="5" y="3" width="1" height="1" fill="#0B3A2E"/>
    <rect x="4" y="3" width="1" height="1" fill="#4EC9F0"/>
    <rect x="3" y="3" width="1" height="1" fill="#159FE8"/>
    <rect x="2" y="3" width="1" height="1" fill="#4EC9F0"/>
    <rect x="1" y="3" width="1" height="1" fill="#0E5A4A"/>
    <rect x="6" y="4" width="1" height="1" fill="#0B3A2E"/>
    <rect x="5" y="4" width="1" height="1" fill="#4EC9F0"/>
    <rect x="4" y="4" width="1" height="1" fill="#159FE8"/>
    <rect x="3" y="4" width="1" height="1" fill="#7FE4FA"/>
    <rect x="2" y="4" width="1" height="1" fill="#0E5A4A"/>
    <rect x="7" y="5" width="1" height="1" fill="#0B3A2E"/>
    <rect x="6" y="5" width="1" height="1" fill="#4EC9F0"/>
    <rect x="5" y="5" width="1" height="1" fill="#159FE8"/>
    <rect x="4" y="5" width="1" height="1" fill="#7FE4FA"/>
    <rect x="3" y="5" width="1" height="1" fill="#0E5A4A"/>
    <rect x="13" y="6" width="1" height="1" fill="#0B3A2E"/>
    <rect x="12" y="6" width="1" height="1" fill="#0B3A2E"/>
    <rect x="8" y="6" width="1" height="1" fill="#0B3A2E"/>
    <rect x="7" y="6" width="1" height="1" fill="#7FE4FA"/>
    <rect x="6" y="6" width="1" height="1" fill="#159FE8"/>
    <rect x="5" y="6" width="1" height="1" fill="#7FE4FA"/>
    <rect x="4" y="6" width="1" height="1" fill="#0E5A4A"/>
    <rect x="13" y="7" width="1" height="1" fill="#0B3A2E"/>
    <rect x="12" y="7" width="1" height="1" fill="#5F4A1E"/>
    <rect x="11" y="7" width="1" height="1" fill="#0B3A2E"/>
    <rect x="9" y="7" width="1" height="1" fill="#0B3A2E"/>
    <rect x="8" y="7" width="1" height="1" fill="#7FE4FA"/>
    <rect x="7" y="7" width="1" height="1" fill="#159FE8"/>
    <rect x="6" y="7" width="1" height="1" fill="#7FE4FA"/>
    <rect x="5" y="7" width="1" height="1" fill="#0E5A4A"/>
    <rect x="12" y="8" width="1" height="1" fill="#0B3A2E"/>
    <rect x="11" y="8" width="1" height="1" fill="#159FE8"/>
    <rect x="10" y="8" width="1" height="1" fill="#0E5A4A"/>
    <rect x="9" y="8" width="1" height="1" fill="#7FE4FA"/>
    <rect x="8" y="8" width="1" height="1" fill="#159FE8"/>
    <rect x="7" y="8" width="1" height="1" fill="#7FE4FA"/>
    <rect x="6" y="8" width="1" height="1" fill="#0E5A4A"/>
    <rect x="12" y="9" width="1" height="1" fill="#0B3A2E"/>
    <rect x="11" y="9" width="1" height="1" fill="#159FE8"/>
    <rect x="10" y="9" width="1" height="1" fill="#159FE8"/>
    <rect x="9" y="9" width="1" height="1" fill="#7FE4FA"/>
    <rect x="8" y="9" width="1" height="1" fill="#7FE4FA"/>
    <rect x="7" y="9" width="1" height="1" fill="#0E5A4A"/>
    <rect x="11" y="10" width="1" height="1" fill="#0B3A2E"/>
    <rect x="10" y="10" width="1" height="1" fill="#159FE8"/>
    <rect x="9" y="10" width="1" height="1" fill="#0B3A2E"/>
    <rect x="8" y="10" width="1" height="1" fill="#0E5A4A"/>
    <rect x="12" y="11" width="1" height="1" fill="#1E7A8A"/>
    <rect x="11" y="11" width="1" height="1" fill="#55F2DA"/>
    <rect x="10" y="11" width="1" height="1" fill="#0E5A4A"/>
    <rect x="9" y="11" width="1" height="1" fill="#0B3A2E"/>
    <rect x="8" y="11" width="1" height="1" fill="#0B3A2E"/>
    <rect x="7" y="11" width="1" height="1" fill="#0E5A4A"/>
    <rect x="13" y="12" width="1" height="1" fill="#1E7A8A"/>
    <rect x="12" y="12" width="1" height="1" fill="#55F2DA"/>
    <rect x="11" y="12" width="1" height="1" fill="#0E5A4A"/>
    <rect x="10" y="12" width="1" height="1" fill="#0B3A2E"/>
    <rect x="9" y="12" width="1" height="1" fill="#0B3A2E"/>
    <rect x="8" y="12" width="1" height="1" fill="#0B3A2E"/>
    <rect x="7" y="12" width="1" height="1" fill="#0B3A2E"/>
    <rect x="6" y="12" width="1" height="1" fill="#0E5A4A"/>
    <rect x="15" y="13" width="1" height="1" fill="#0B3A2E"/>
    <rect x="14" y="13" width="1" height="1" fill="#0B3A2E"/>
    <rect x="13" y="13" width="1" height="1" fill="#55F2DA"/>
    <rect x="12" y="13" width="1" height="1" fill="#0B3A2E"/>
    <rect x="11" y="13" width="1" height="1" fill="#0E5A4A"/>
    <rect x="6" y="13" width="1" height="1" fill="#0E5A4A"/>
    <rect x="5" y="13" width="1" height="1" fill="#0E5A4A"/>
    <rect x="15" y="14" width="1" height="1" fill="#0B3A2E"/>
    <rect x="14" y="14" width="1" height="1" fill="#5F4A1E"/>
    <rect x="13" y="14" width="1" height="1" fill="#0E5A4A"/>
    <rect x="15" y="15" width="1" height="1" fill="#0E5A4A"/>
    <rect x="14" y="15" width="1" height="1" fill="#0E5A4A"/>
    <rect x="13" y="15" width="1" height="1" fill="#0E5A4A"/>
    <rect x="11" y="11" width="1" height="1" fill="#E9FFFF"/>
    <rect x="0" y="1" width="1" height="1" fill="#FFFFFF"/>
    <rect x="1" y="0" width="1" height="1" fill="#FFFFFF"/>
    <rect x="2" y="1" width="1" height="1" fill="#55F2DA"/>
</svg>
